<svg xmlns="http://www.w3.org/2000/svg" viewBox="0 0 368 96"><rect data-role="rect" x="0" y="0" width="390" height="96" rx="14" fill="hsl(221 65% 45%)" style="display: none;"/><circle data-role="circle" cx="220" cy="47" r="48" fill="hsl(221 65% 45%)" style="display: none;"/><svg data-role="flat" x="-3" y="0" width="96" height="96" viewBox="0 0 96 96"><g data-role="background" data-size="1.2" data-dx="0" fill="hsl(221 65% 45%)" transform="translate(-9.599999999999994 -9.599999999999994) scale(7.199999999999999)"><path fill-rule="evenodd" d="M6.95.435c.58-.58 1.52-.58 2.1 0l6.515 6.516c.58.58.58 1.519 0 2.098L9.05 15.565c-.58.58-1.519.58-2.098 0L.435 9.05a1.48 1.48 0 0 1 0-2.098z"/></g><g data-role="outline" data-size="0.75" data-dx="0" fill="hsl(41 80% 93%)" transform="translate(12 12) scale(4.5)"><path d="M5 2V0H0v5h2v6H0v5h5v-2h6v2h5v-5h-2V5h2V0h-5v2zm6 1v2h2v6h-2v2H5v-2H3V5h2V3zm1-2h3v3h-3zm3 11v3h-3v-3zM4 15H1v-3h3zM1 4V1h3v3z"/></g><g data-role="symbol" data-size="0.5" data-dx="0" fill="hsl(41 80% 93%)" transform="translate(24 24) scale(3)"><path fill-rule="evenodd" d="M6 2a.5.5 0 0 1 .47.33L10 12.036l1.53-4.208A.5.5 0 0 1 12 7.5h3.5a.5.5 0 0 1 0 1h-3.15l-1.88 5.17a.5.5 0 0 1-.94 0L6 3.964 4.47 8.171A.5.5 0 0 1 4 8.5H.5a.5.5 0 0 1 0-1h3.15l1.88-5.17A.5.5 0 0 1 6 2"/></g></svg><text xmlns="http://www.w3.org/2000/svg" data-role="title" x="116" y="48" dominant-baseline="central" font-family="Avenir, Montserrat, Corbel, 'URW Gothic', 'Segoe UI', sans-serif" font-weight="600" font-size="42" fill="currentColor"><tspan data-part="0" font-family="system-ui, 'Segoe UI', Roboto, Helvetica, Arial, sans-serif" font-weight="600" font-size="50.4" dx="-15" dy="-4">MND</tspan><tspan data-part="1" font-family="system-ui, 'Segoe UI', Roboto, Helvetica, Arial, sans-serif" font-weight="800" font-size="65.10000000000001" dx="3" dy="-7" class="active-drag">icon</tspan></text></svg>