<svg xmlns="http://www.w3.org/2000/svg" viewBox="0 0 96 96"><g data-role="solid" data-size="1" data-dx="0" fill="#2857bd" transform="translate(5.400000000000006 0.4000000000000057) scale(5.699999999999999)"><path d="M0 2a2 2 0 0 1 2-2h12a2 2 0 0 1 2 2v12a2 2 0 0 1-2 2H2a2 2 0 0 1-2-2z"/></g><g data-role="fore" data-size="0.75" data-dx="12" fill="#fbf2df" transform="translate(10 5) scale(4.5)"><path d="M3.5.5A.5.5 0 0 1 4 1v13h13a.5.5 0 0 1 0 1h-2v2a.5.5 0 0 1-1 0v-2H3.5a.5.5 0 0 1-.5-.5V4H1a.5.5 0 0 1 0-1h2V1a.5.5 0 0 1 .5-.5m2.5 3a.5.5 0 0 1 .5-.5h8a.5.5 0 0 1 .5.5v8a.5.5 0 0 1-1 0V4H6.5a.5.5 0 0 1-.5-.5"/></g></svg>