<svg xmlns="http://www.w3.org/2000/svg" viewBox="0 0 354 96"><rect data-role="rect" x="0" y="0" width="345" height="96" rx="14" fill="hsl(240 5% 34%)" style="display: none;"/><circle data-role="circle" cx="172.5" cy="48" r="48" fill="hsl(240 5% 34%)" style="display: none;"/><svg data-role="flat" x="-7" y="0" width="96" height="96" viewBox="0 0 96 96"><mask id="c1-cut1-i100-i2" maskUnits="userSpaceOnUse" x="0" y="0" width="96" height="96"><rect width="96" height="96" fill="#fff"/><g data-role="fore" data-size="0.7" data-dx="0" fill="#000" transform="translate(14.400000000000006 11.400000000000006) scale(4.199999999999999)"><path d="M7.752.066a.5.5 0 0 1 .496 0l3.75 2.143a.5.5 0 0 1 .252.434v3.995l3.498 2A.5.5 0 0 1 16 9.07v4.286a.5.5 0 0 1-.252.434l-3.75 2.143a.5.5 0 0 1-.496 0l-3.502-2-3.502 2.001a.5.5 0 0 1-.496 0l-3.75-2.143A.5.5 0 0 1 0 13.357V9.071a.5.5 0 0 1 .252-.434L3.75 6.638V2.643a.5.5 0 0 1 .252-.434zM4.25 7.504 1.508 9.071l2.742 1.567 2.742-1.567zM7.5 9.933l-2.75 1.571v3.134l2.75-1.571zm1 3.134 2.75 1.571v-3.134L8.5 9.933zm.508-3.996 2.742 1.567 2.742-1.567-2.742-1.567zm2.242-2.433V3.504L8.5 5.076V8.21zM7.5 8.21V5.076L4.75 3.504v3.134zM5.258 2.643 8 4.21l2.742-1.567L8 1.076zM15 9.933l-2.75 1.571v3.134L15 13.067zM3.75 14.638v-3.134L1 9.933v3.134z"/></g></mask><g mask="url(#c1-cut1-i100-i2)"><g data-role="solid" data-size="1" data-dx="0" fill="hsl(240 5% 34%)" transform="translate(0 0) scale(6)"><path fill-rule="evenodd" d="M8.5.134a1 1 0 0 0-1 0l-6 3.577a1 1 0 0 0-.5.866v6.846a1 1 0 0 0 .5.866l6 3.577a1 1 0 0 0 1 0l6-3.577a1 1 0 0 0 .5-.866V4.577a1 1 0 0 0-.5-.866z"/></g></g></svg><text xmlns="http://www.w3.org/2000/svg" data-role="title" x="116" y="48" dominant-baseline="central" font-family="Avenir, Montserrat, Corbel, 'URW Gothic', 'Segoe UI', sans-serif" font-weight="600" font-size="42" fill="currentColor"><tspan data-part="0" font-family="system-ui, 'Segoe UI', Roboto, Helvetica, Arial, sans-serif" font-weight="400" font-size="54.6" dx="-21">MND</tspan><tspan data-part="1" font-family="system-ui, 'Segoe UI', Roboto, Helvetica, Arial, sans-serif" font-weight="800" font-size="54.6" dx="10">icon</tspan></text></svg>