<svg xmlns="http://www.w3.org/2000/svg" viewBox="0 0 310 96"><rect data-role="rect" x="0" y="0" width="302" height="96" rx="14" fill="hsl(221 65% 45%)" style=""/><circle data-role="circle" cx="176" cy="47" r="48" fill="hsl(221 65% 45%)" style="display: none;"/><svg data-role="flat" x="-3" y="0" width="96" height="96" viewBox="0 0 96 96"><mask id="c2-cut2-i100-i2" maskUnits="userSpaceOnUse" x="0" y="0" width="96" height="96"><rect width="96" height="96" fill="#fff"/><g data-role="symbol" data-size="0.4" data-dx="0" fill="#000" transform="translate(28.799999999999997 28.799999999999997) scale(2.4000000000000004)" class="" style="display: none;"><path d="M8 11a3 3 0 1 1 0-6 3 3 0 0 1 0 6m0 1a4 4 0 1 0 0-8 4 4 0 0 0 0 8M8 0a.5.5 0 0 1 .5.5v2a.5.5 0 0 1-1 0v-2A.5.5 0 0 1 8 0m0 13a.5.5 0 0 1 .5.5v2a.5.5 0 0 1-1 0v-2A.5.5 0 0 1 8 13m8-5a.5.5 0 0 1-.5.5h-2a.5.5 0 0 1 0-1h2a.5.5 0 0 1 .5.5M3 8a.5.5 0 0 1-.5.5h-2a.5.5 0 0 1 0-1h2A.5.5 0 0 1 3 8m10.657-5.657a.5.5 0 0 1 0 .707l-1.414 1.415a.5.5 0 1 1-.707-.708l1.414-1.414a.5.5 0 0 1 .707 0m-9.193 9.193a.5.5 0 0 1 0 .707L3.05 13.657a.5.5 0 0 1-.707-.707l1.414-1.414a.5.5 0 0 1 .707 0m9.193 2.121a.5.5 0 0 1-.707 0l-1.414-1.414a.5.5 0 0 1 .707-.707l1.414 1.414a.5.5 0 0 1 0 .707M4.464 4.465a.5.5 0 0 1-.707 0L2.343 3.05a.5.5 0 1 1 .707-.707l1.414 1.414a.5.5 0 0 1 0 .708"/></g></mask><g data-role="background" data-size="1" data-dx="0" fill="hsl(221 65% 45%)" transform="translate(0 0) scale(6)"><path d="M11.107 0a.5.5 0 0 1 .353.146l4.394 4.394a.5.5 0 0 1 .146.353v6.214a.5.5 0 0 1-.146.353l-4.394 4.394a.5.5 0 0 1-.353.146H4.893a.5.5 0 0 1-.353-.146L.146 11.46A.5.5 0 0 1 0 11.107V4.893a.5.5 0 0 1 .146-.353L4.54.146A.5.5 0 0 1 4.893 0z"/></g><g mask="url(#c2-cut2-i100-i2)"><g data-role="foreground" data-size="0.6" data-dx="0" fill="hsl(41 80% 93%)" transform="translate(19.200000000000003 19.200000000000003) scale(3.5999999999999996)"><path fill-rule="evenodd" d="M15.528 2.973a.75.75 0 0 1 .472.696v8.662a.75.75 0 0 1-.472.696l-7.25 2.9a.75.75 0 0 1-.557 0l-7.25-2.9A.75.75 0 0 1 0 12.331V3.669a.75.75 0 0 1 .471-.696L7.443.184l.004-.001.274-.11a.75.75 0 0 1 .558 0l.274.11.004.001zm-1.374.527L8 5.962 1.846 3.5 1 3.839v.4l6.5 2.6v7.922l.5.2.5-.2V6.84l6.5-2.6v-.4l-.846-.339Z"/></g></g></svg><text xmlns="http://www.w3.org/2000/svg" data-role="title" x="116" y="48" dominant-baseline="central" font-family="Avenir, Montserrat, Corbel, 'URW Gothic', 'Segoe UI', sans-serif" font-weight="600" font-size="42" fill="currentColor"><tspan data-part="0" font-family="system-ui, 'Segoe UI', Roboto, Helvetica, Arial, sans-serif" font-weight="600" font-size="29.4" dx="-35" dy="-4">MND</tspan><tspan data-part="1" font-family="system-ui, 'Segoe UI', Roboto, Helvetica, Arial, sans-serif" font-weight="800" font-size="65.10000000000001" dx="5" dy="-4">icon</tspan></text></svg>