<svg xmlns="http://www.w3.org/2000/svg" viewBox="0 0 96 96"><mask id="c0-cut1-i2" maskUnits="userSpaceOnUse" x="0" y="0" width="96" height="96"><rect width="96" height="96" fill="#fff"/><g data-role="symbol" data-size="0.7" data-dx="0" fill="#000" transform="translate(7.719999999999999 8.719999999999999) scale(4.41)" class=""><path d="M3.5.5A.5.5 0 0 1 4 1v13h13a.5.5 0 0 1 0 1h-2v2a.5.5 0 0 1-1 0v-2H3.5a.5.5 0 0 1-.5-.5V4H1a.5.5 0 0 1 0-1h2V1a.5.5 0 0 1 .5-.5m2.5 3a.5.5 0 0 1 .5-.5h8a.5.5 0 0 1 .5.5v8a.5.5 0 0 1-1 0V4H6.5a.5.5 0 0 1-.5-.5"/></g></mask><g mask="url(#c0-cut1-i2)" data-masked-by="c0-cut1-i2"><g data-role="background" data-size="1" data-dx="0" fill="hsl(240 5% 29%)" transform="translate(0 0) scale(6)" class="" style=""><path fill-rule="evenodd" d="M4 0h8a2 2 0 0 1 2 2v12a2 2 0 0 1-2 2H4a2 2 0 0 1-2-2V2a2 2 0 0 1 2-2"/></g></g></svg>